<svg width="35" height="46" viewBox="0 0 35 46" fill="none" xmlns="http://www.w3.org/2000/svg">
<path d="M4.04 45.5C2.92 45.5 1.96667 45.1067 1.18 44.32C0.393334 43.5333 0 42.5808 0 41.4625V19.5375C0 18.4208 0.393334 17.4683 1.18 16.68C1.96667 15.8933 2.92 15.5 4.04 15.5H7.5V10.5C7.5 7.715 8.47083 5.3525 10.4125 3.4125C12.3525 1.47083 14.715 0.5 17.5 0.5C20.285 0.5 22.6483 1.47083 24.59 3.4125C26.5317 5.35417 27.5017 7.71667 27.5 10.5V15.5H30.9625C32.0792 15.5 33.0317 15.8933 33.82 16.68C34.6067 17.4667 35 18.42 35 19.54V41.4625C35 42.5792 34.6067 43.5317 33.82 44.32C33.0333 45.1067 32.0808 45.5 30.9625 45.5H4.04ZM4.04 43H30.9625C31.4108 43 31.7792 42.8558 32.0675 42.5675C32.3558 42.2792 32.5 41.9108 32.5 41.4625V19.5375C32.5 19.0892 32.3558 18.7208 32.0675 18.4325C31.7792 18.1442 31.4108 18 30.9625 18H4.0375C3.58917 18 3.22083 18.1442 2.9325 18.4325C2.64417 18.7208 2.5 19.09 2.5 19.54V41.4625C2.5 41.9108 2.64417 42.2792 2.9325 42.5675C3.22083 42.8558 3.59 43 4.04 43ZM17.5 34.25C18.555 34.25 19.4433 33.8883 20.165 33.165C20.8883 32.4433 21.25 31.555 21.25 30.5C21.25 29.445 20.8883 28.5567 20.165 27.835C19.4417 27.1133 18.5533 26.7517 17.5 26.75C16.4467 26.7483 15.5583 27.11 14.835 27.835C14.1117 28.5567 13.75 29.445 13.75 30.5C13.75 31.555 14.1117 32.4433 14.835 33.165C15.5567 33.8883 16.445 34.25 17.5 34.25ZM10 15.5H25V10.5C25 8.41667 24.2708 6.64583 22.8125 5.1875C21.3542 3.72917 19.5833 3 17.5 3C15.4167 3 13.6458 3.72917 12.1875 5.1875C10.7292 6.64583 10 8.41667 10 10.5V15.5Z" fill="url(#paint0_linear_264_184)"/>
<defs>
<linearGradient id="paint0_linear_264_184" x1="63.2177" y1="-32.6835" x2="11.6188" y2="56.6724" gradientUnits="userSpaceOnUse">
<stop offset="0.187596" stop-color="#88C4FF"/>
<stop offset="0.730049" stop-color="#146AF4"/>
</linearGradient>
</defs>
</svg>
